# xmcd CD database file
#
# Track frame offsets:
#	150
#	13385
#	26568
#	39444
#	51124
#	64672
#	77893
#	89944
#	110870
#	126447
#	140657
#	157946
#	169411
#	188094
#	206501
#	221997
#
# Disc length: 3152 seconds
#
# Revision: 0
# Processed by: cddbd v1.5.1PL0 Copyright (c) Steve Scherf et al.
# Submitted via: CDex 1.51
#
DISCID=f70c4e10
DTITLE=Various Artist - Country Divas
DYEAR=2004
DGENRE=Country
TTITLE0=Dolly Parton           I Will Always Love You
TTITLE1=Crystal Gayle         Talking In Your Sleep
TTITLE2=Billie Jo Spears     '57 Chevrolet
TTITLE3=Patsy Cline            Sweet Dreams
TTITLE4=Loretta Lynn          Coal Miners Daughter
TTITLE5=Tanya Tucker       San Antonio Stroll
TTITLE6=Marie Osmond       Paper Roses
TTITLE7=Nanci Griffith         Love At The Five And Dime
TTITLE8=Mindy McCready   Ten Thousand Angels
TTITLE9=Suzy Bogguss       Drive South
TTITLE10=Alison Krauss        Baby Now That I've Found You
TTITLE11=Lynn Anderson     Listen To A Country Song
TTITLE12=Juice Newton       Angel Of The Morning
TTITLE13=Maria McKee       Only Once
TTITLE14=Martine McBride   Independence Day
TTITLE15=Heather Myles     The Love You Left Behind
EXTD=YEAR: 2004
EXTT0=
EXTT1=
EXTT2=
EXTT3=
EXTT4=
EXTT5=
EXTT6=
EXTT7=
EXTT8=
EXTT9=
EXTT10=
EXTT11=
EXTT12=
EXTT13=
EXTT14=
EXTT15=
PLAYORDER=
